<?xml version="1.0" encoding="UTF-8" standalone="no"?>
<!-- Created with Inkscape (http://www.inkscape.org/) -->

<svg
   xmlns:dc="http://purl.org/dc/elements/1.1/"
   xmlns:cc="http://creativecommons.org/ns#"
   xmlns:rdf="http://www.w3.org/1999/02/22-rdf-syntax-ns#"
   xmlns:svg="http://www.w3.org/2000/svg"
   xmlns="http://www.w3.org/2000/svg"
   xmlns:sodipodi="http://sodipodi.sourceforge.net/DTD/sodipodi-0.dtd"
   xmlns:inkscape="http://www.inkscape.org/namespaces/inkscape"
   width="297mm"
   height="210mm"
   viewBox="0 0 1052.3622 744.09448"
   id="svg2"
   version="1.1"
   inkscape:version="0.91 r"
   sodipodi:docname="track-list.svg">
  <defs
     id="defs4" />
  <sodipodi:namedview
     id="base"
     pagecolor="#ffffff"
     bordercolor="#666666"
     borderopacity="1.0"
     inkscape:pageopacity="0.0"
     inkscape:pageshadow="2"
     inkscape:zoom="0.5"
     inkscape:cx="471.03334"
     inkscape:cy="411.21213"
     inkscape:document-units="px"
     inkscape:current-layer="layer1"
     showgrid="false"
     inkscape:window-width="681"
     inkscape:window-height="637"
     inkscape:window-x="683"
     inkscape:window-y="33"
     inkscape:window-maximized="0" />
  <metadata
     id="metadata7">
    <rdf:RDF>
      <cc:Work
         rdf:about="">
        <dc:format>image/svg+xml</dc:format>
        <dc:type
           rdf:resource="http://purl.org/dc/dcmitype/StillImage" />
        <dc:title></dc:title>
      </cc:Work>
    </rdf:RDF>
  </metadata>
  <g
     inkscape:label="Layer 1"
     inkscape:groupmode="layer"
     id="layer1"
     transform="translate(0,-308.26772)">
    <rect
       style="fill:#000000;fill-opacity:0.72972969;stroke:#808080;stroke-width:0.62094516"
       id="rect3336"
       width="444.95044"
       height="113.52192"
       x="95.239044"
       y="455.88693" />
    <rect
       style="fill:#4d4d4d;fill-opacity:0.72972969;stroke:#808080"
       id="rect3342"
       width="54.285713"
       height="48.57143"
       x="112.5"
       y="507.29077" />
    <rect
       style="fill:#4d4d4d;fill-opacity:0.72972969;stroke:#808080"
       id="rect3342-2"
       width="54.285713"
       height="48.57143"
       x="175.35715"
       y="507.29077" />
    <rect
       style="fill:#4d4d4d;fill-opacity:0.72972969;stroke:#808080"
       id="rect3342-2-2"
       width="54.285713"
       height="48.57143"
       x="239.07144"
       y="507.29077" />
    <rect
       style="fill:#1a1a1a;fill-opacity:0.72972969;stroke:none"
       id="rect3389"
       width="90.571426"
       height="16.571426"
       x="430.28571"
       y="480.36218" />
    <text
       xml:space="preserve"
       style="font-style:normal;font-weight:normal;font-size:40px;line-height:125%;font-family:sans-serif;letter-spacing:0px;word-spacing:0px;fill:#000000;fill-opacity:1;stroke:none;stroke-width:1px;stroke-linecap:butt;stroke-linejoin:miter;stroke-opacity:1"
       x="110.45581"
       y="491.93741"
       id="text3391"
       sodipodi:linespacing="125%"><tspan
         sodipodi:role="line"
         id="tspan3393"
         x="110.45581"
         y="491.93741"
         style="font-size:27.5px;fill:#ffffff">Grand Piano</tspan></text>
    <path
       style="fill:#000000;fill-opacity:0.72972969;stroke:none"
       id="path3403"
       d="m 339.89814,487.14504 c 6.61617,-2.32105 10.96572,-5.40468 15.12675,-8.43104 2.63523,-2.18385 4.86649,-4.48222 8.70866,-6.39304 0,0 17.64887,-1.1315 17.64887,-1.1315 l 0,0 c -4.46024,1.68972 -6.475,4.10617 -9.14412,6.25202 -4.09385,3.03034 -8.34729,6.12271 -14.50086,8.59721 0,0 -17.8393,1.10635 -17.8393,1.10635 z"
       inkscape:connector-curvature="0" />
    <path
       style="fill:#000000;fill-opacity:0.72972969;stroke:none"
       id="path3405"
       d="m 332.65536,501.327 c 3.80137,-2.90866 9.00287,-5.36356 14.84931,-7.66657 6.89005,-2.71711 14.55885,-5.08272 23.52051,-6.63485 0,0 17.51335,-0.81226 17.51335,-0.81226 l 0,0 c -9.11619,1.38724 -16.88073,3.67507 -23.77965,6.37782 -5.73145,2.22053 -11.1534,4.5515 -14.37218,7.49526 0,0 -17.73134,1.2406 -17.73134,1.2406 z"
       inkscape:connector-curvature="0" />
    <path
       style="fill:#000000;fill-opacity:0.72972969;stroke:none"
       id="path3407"
       d="m 358.13999,507.14504 c 3.58696,-0.89256 6.97662,-1.8905 10.4391,-2.85382 0,0 17.53207,-0.96357 17.53207,-0.96357 l 0,0 c -3.37703,0.90521 -6.39531,2.04142 -10.13184,2.71104 0,0 -17.83933,1.10635 -17.83933,1.10635 z"
       inkscape:connector-curvature="0" />
    <rect
       style="fill:none;fill-opacity:0.72972969;stroke:#000000;stroke-width:1.59808087"
       id="rect3409"
       width="76.615852"
       height="31.428572"
       x="322.40634"
       y="474.07648" />
    <rect
       style="fill:#1a1a1a;fill-opacity:0.72972969;stroke:none"
       id="rect3389-8"
       width="208.57143"
       height="20.571426"
       x="313.71429"
       y="524.07648" />
  </g>
</svg>
